<svg fill="#000000" xmlns="http://www.w3.org/2000/svg" viewBox="0 0 26 26" width="52px" height="52px"><path d="M2.1,23c0,0,0-1.5,0-1.7c0-2.2,3.3-4.2,6.9-4.9c0,0,1.1-0.6,0.8-1.7c-1.1-1.4-1.4-2.9-1.4-2.9c-0.2-0.1-0.5-0.3-0.7-0.5C7.4,10.9,7,9.7,7.1,8.8C7.2,8,7.4,8.3,7.5,8.1C6.7,6.3,7.1,4,8,2.3C9.9-1,13.9,0,14.5,1.2c3.8-0.7,3.7,5.3,3.1,6.8c0,0,0.3,0.1,0.3,1.5c-0.1,1.5-1.3,2.4-1.3,2.4c0,0.4-0.5,1.6-1.3,2.7c-0.7,1.4,0.7,1.7,0.7,1.7c3.6,0.7,6.9,2.7,6.9,4.9c0,0.2,0,1.7,0,1.7c0,1.4-5.4,2.9-10.4,2.9C7.6,25.8,2.1,25.3,2.1,23z"/></svg>